<?xml version="1.0" encoding="UTF-8"?>
<svg id="Layer_1" xmlns="http://www.w3.org/2000/svg" version="1.1" viewBox="0 0 174 48">
  <!-- Generator: Adobe Illustrator 30.4.0, SVG Export Plug-In . SVG Version: 2.1.4 Build 226)  -->
  <defs>
    <style>
      .st0 {
        fill-rule: evenodd;
      }

      .st0, .st1 {
        fill: #231f1d;
      }
    </style>
  </defs>
  <path class="st0" d="M51.27,24h-.07l.06-.02v.02h0Z"/>
  <path class="st1" d="M17.45,17.43v-.19c-6.99,2.46-12.45,5.06-15.29,7.31-.82.65-1.43,1.27-1.78,1.85-.33.54-.45,1.04-.34,1.49.11.45.45.84,1,1.16,1.11.65,3.06,1.02,5.67,1.12-.12-.56-.19-1.14-.19-1.74,0-.97.17-1.9.48-2.76-.32-.22-.54-.47-.63-.76h0s0-.04-.01-.06c-.46-1.84,4-4.67,11.09-7.42Z"/>
  <path class="st1" d="M11.13,26.6c-.29.54-.45,1.16-.45,1.82,0,.6.14,1.18.38,1.69.63,1.31,1.97,2.21,3.52,2.21,1.82,0,3.34-1.24,3.78-2.92.08-.31.13-.64.13-.98,0-.75-.21-1.45-.58-2.05-.69-1.11-1.92-1.85-3.32-1.85-1.5,0-2.8.84-3.45,2.08h-.01Z"/>
  <path class="st0" d="M25.25,8.39h-7.8v12.49c2.24.85,4.01,2.67,4.78,4.96.27.81.42,1.68.42,2.59v.33c.86-.14,1.73-.3,2.61-.47,2.51-.47,5.12-1.03,7.8-1.68.49-.12.98-.24,1.47-.36.42-.1.84-.21,1.25-.32,1.74-.45,3.44-.91,5.08-1.39.62-.18,1.22-.36,1.82-.54,2.09-.64,4.09-1.3,5.98-1.97.35-.12.7-.25,1.04-.37,2.49-.91,4.76-1.83,6.76-2.75,4.68-2.13,7.88-4.22,8.94-5.93.33-.54.45-1.04.34-1.49s-.45-.84-1-1.16c-.59-.34-1.41-.61-2.44-.8-1.52-.28-3.5-.39-5.84-.34v-.82h-7.8v10.41c-.23.09-.45.18-.68.27l-7.12-10.68h-7.8v13.01l-7.8-13.01v.02ZM58.75,11.84h0s0-.04,0-.05c-.17-.67-.96-1.15-2.27-1.44v4.51c1.61-1.13,2.44-2.17,2.28-3h0v-.02Z"/>
  <path class="st1" d="M27.86,39.61h5.2v-10.19c-2.69.63-5.3,1.18-7.8,1.64-.94.17-1.87.33-2.78.48l5.38,8.07Z"/>
  <path class="st1" d="M43.99,39.61h4.68l7.8-15.61v-2.14c-1.59.71-3.34,1.42-5.22,2.12v.02h-.06c-.82.31-1.66.61-2.53.91-2.43.85-5.05,1.68-7.8,2.47-1.18.34-2.39.67-3.62.99l6.74,11.24h0Z"/>
  <path class="st1" d="M89.79,8.31l-3.43,12.48h-3.26l-.98-4.2c-.17-.71-.35-1.63-.52-2.75-.12-.71-.21-1.27-.3-1.69-.06.36-.15.91-.26,1.66-.13.88-.3,1.8-.51,2.74l-.94,4.25h-3.31l-3.4-12.48h3.28l.94,4.03c.37,1.64.66,3.34.87,5.09.23-1.8.52-3.48.87-5.04l.94-4.08h3.1l.87,3.84c.41,1.81.71,3.57.92,5.28.24-1.96.57-3.79.98-5.47l.85-3.64h3.28v-.02Z"/>
  <path class="st1" d="M97.3,8.31l4.67,12.48h-3.38l-.8-2.28h-4.32l-.8,2.28h-3.35l4.67-12.48s3.31,0,3.31,0ZM97.04,16.18l-.59-1.69c-.35-1.02-.62-1.96-.8-2.81-.23.91-.52,1.85-.85,2.84l-.58,1.66h2.82Z"/>
  <path class="st1" d="M111.82,17.99v2.81h-9.12v-12.48h3.26v9.68h5.86Z"/>
  <path class="st1" d="M122.23,17.99v2.81h-9.12v-12.48h3.26v9.68h5.86Z"/>
  <path class="st1" d="M132.05,8c1.94,0,3.49.69,4.64,2.06.99,1.2,1.48,2.7,1.48,4.5,0,2.08-.64,3.73-1.92,4.95-1.12,1.07-2.52,1.6-4.2,1.6-1.98,0-3.54-.69-4.71-2.06-1-1.19-1.5-2.68-1.5-4.5,0-2.08.62-3.71,1.85-4.88,1.19-1.12,2.64-1.67,4.36-1.67ZM132.03,10.69c-.94,0-1.67.4-2.2,1.19-.45.67-.68,1.56-.68,2.67,0,1.29.29,2.28.87,2.98.51.6,1.18.91,2.02.91s1.57-.34,2.07-1.03c.5-.7.75-1.67.75-2.91s-.29-2.24-.87-2.91c-.5-.59-1.16-.89-1.97-.89h0Z"/>
  <path class="st1" d="M148.81,8.31v2.69h-5.96v2.44h5.16v2.55h-5.16v4.81h-3.26v-12.48h9.22Z"/>
  <path class="st1" d="M62.67,27.2h5.14c1.65,0,2.84.25,3.57.75,1.14.77,1.71,1.93,1.71,3.49,0,1.27-.43,2.29-1.29,3.07-.74.67-1.84,1.01-3.3,1.01h-2.58v4.17h-3.26v-12.48h.01ZM65.93,29.89v3.07h2.14c1.23,0,1.85-.51,1.85-1.53s-.66-1.51-1.97-1.52c0,0-2.02-.02-2.02-.02Z"/>
  <path class="st1" d="M80.03,26.89c1.94,0,3.49.69,4.64,2.06.99,1.2,1.48,2.7,1.48,4.5,0,2.08-.64,3.73-1.92,4.95-1.12,1.07-2.52,1.6-4.2,1.6-1.98,0-3.55-.69-4.71-2.06-1-1.19-1.5-2.69-1.5-4.5,0-2.08.62-3.71,1.85-4.88,1.19-1.12,2.64-1.67,4.36-1.67ZM80.01,29.57c-.94,0-1.67.4-2.2,1.19-.45.67-.68,1.56-.68,2.67,0,1.29.29,2.28.87,2.98.51.6,1.19.91,2.02.91.88,0,1.58-.34,2.07-1.03.5-.7.75-1.67.75-2.91s-.29-2.24-.87-2.91c-.5-.59-1.16-.89-1.97-.89h.01Z"/>
  <path class="st1" d="M87.53,27.2h6.15c1.27,0,2.23.2,2.89.59,1.13.66,1.69,1.67,1.69,3.02,0,.7-.17,1.32-.52,1.87s-.82.94-1.41,1.19c.52.14.94.45,1.26.94.21.33.35.66.42,1.01.08.34.17,1.11.28,2.32.08.77.19,1.24.31,1.43l.1.12h-3.33c-.1-.24-.23-1.12-.37-2.62-.09-.76-.3-1.28-.63-1.57-.33-.3-.85-.45-1.59-.45h-2.01v4.64h-3.26v-12.48h.02ZM90.79,29.77v2.95h2.3c1.31,0,1.97-.5,1.97-1.5s-.67-1.45-2.01-1.45h-2.27,0Z"/>
  <path class="st1" d="M110.11,27.2v2.81h-3.73v9.68h-3.24v-9.68h-3.71v-2.81h10.69-.01Z"/>
  <path class="st1" d="M120.46,27.2v2.69h-5.96v2.44h5.16v2.55h-5.16v4.81h-3.26v-12.48h9.22Z"/>
  <path class="st1" d="M127.24,26.89c1.94,0,3.49.69,4.64,2.06.99,1.2,1.48,2.7,1.48,4.5,0,2.08-.64,3.73-1.92,4.95-1.12,1.07-2.52,1.6-4.2,1.6-1.98,0-3.54-.69-4.71-2.06-1-1.19-1.5-2.69-1.5-4.5,0-2.08.62-3.71,1.85-4.88,1.19-1.12,2.64-1.67,4.36-1.67ZM127.23,29.57c-.94,0-1.67.4-2.2,1.19-.45.67-.68,1.56-.68,2.67,0,1.29.29,2.28.87,2.98.51.6,1.18.91,2.02.91s1.57-.34,2.07-1.03c.5-.7.75-1.67.75-2.91s-.29-2.24-.87-2.91c-.5-.59-1.16-.89-1.97-.89h0Z"/>
  <path class="st1" d="M143.9,36.88v2.81h-9.12v-12.48h3.26v9.68h5.86Z"/>
  <path class="st1" d="M148.45,27.2v12.48h-3.26v-12.48h3.26Z"/>
  <path class="st1" d="M156.06,26.89c1.94,0,3.49.69,4.64,2.06.99,1.2,1.48,2.7,1.48,4.5,0,2.08-.64,3.73-1.92,4.95-1.12,1.07-2.52,1.6-4.2,1.6-1.98,0-3.54-.69-4.71-2.06-1-1.19-1.5-2.69-1.5-4.5,0-2.08.62-3.71,1.85-4.88,1.19-1.12,2.64-1.67,4.36-1.67ZM156.04,29.57c-.94,0-1.67.4-2.2,1.19-.45.67-.68,1.56-.68,2.67,0,1.29.29,2.28.87,2.98.51.6,1.19.91,2.02.91.88,0,1.57-.34,2.07-1.03.5-.7.75-1.67.75-2.91s-.29-2.24-.87-2.91c-.5-.59-1.16-.89-1.97-.89h0Z"/>
  <path class="st1" d="M173.15,30.95h-3.1c-.05-1.02-.71-1.53-2.01-1.53-1.13,0-1.69.37-1.69,1.1,0,.34.15.58.45.73.25.13,1.07.37,2.46.71,1.31.34,2.27.69,2.86,1.06,1.02.63,1.53,1.57,1.53,2.82,0,1.37-.54,2.43-1.62,3.17-.94.65-2.18.98-3.71.98-1.86,0-3.28-.45-4.25-1.34-.86-.78-1.3-1.84-1.32-3.17h3.28c.07,1.33.88,1.99,2.42,1.99,1.27,0,1.9-.42,1.9-1.27,0-.4-.17-.69-.51-.87-.32-.2-1.14-.48-2.46-.85-1.59-.45-2.66-.91-3.21-1.38-.64-.55-.96-1.34-.96-2.37,0-1.23.51-2.2,1.53-2.91.89-.62,2.04-.92,3.43-.92,1.66,0,2.93.4,3.8,1.2.76.7,1.15,1.65,1.17,2.86h.01Z"/>
</svg>