<svg width="210" height="73" viewBox="0 0 210 73" fill="none" xmlns="http://www.w3.org/2000/svg">
<path fill-rule="evenodd" clip-rule="evenodd" d="M56.598 6.76531C47.4089 9.33066 45.3034 20.4701 53.2593 24.428C53.9571 24.7753 54.4123 25.0597 54.2706 25.0597C53.1561 25.0597 50.4616 28.3119 49.3055 31.0533L48.6769 32.5432L48.139 31.2173C44.5383 22.3464 34.704 18.4432 26.4674 22.6172L25.3706 23.1729L24.8295 22.5964C22.81 20.4472 17.7892 19.8446 14.6208 21.3715C4.52341 26.2387 4.46248 55.6662 14.5395 60.648C22.6256 64.6455 28.8906 57.3676 30.3003 42.339C30.4847 40.3726 30.6747 38.7243 30.7232 38.6764C32.9797 36.4194 33.7931 39.9299 32.4006 45.9137C30.5008 54.0753 32.9589 57.6494 40.3081 57.4129C44.8565 57.2666 46.8547 55.7095 48.4879 51.0402C48.6264 50.6434 48.7374 50.7433 49.2342 51.7125C52.5692 58.2191 61.0308 57.6488 65.2298 50.635L66.0308 49.2977L66.5599 50.9444C67.9941 55.4048 70.7048 57.7301 74.6403 57.878C80.4855 58.0967 82.6691 55.2418 85.1641 44.1165C85.9474 40.6236 86.1333 40.2919 87.7831 39.4404L89.0387 38.7926L89.1116 39.7581C89.221 41.2011 88.3877 43.6113 86.4254 47.5281C83.8518 52.6671 83.394 54.2331 83.8408 56.3656C84.8589 61.2193 93.9595 61.1141 98.8345 56.1917C102.794 52.1942 105.426 42.4166 104.091 36.6699L103.892 35.8142L105.498 35.7377C106.51 35.6898 107.064 35.7476 106.997 35.8944C101.223 48.5259 108.867 59.5866 121.511 56.8953L123.225 56.5302L123.97 57.0984C129.436 61.2682 135.047 56.2032 136.358 45.9137C139.101 24.3946 130.509 11.3153 115.366 13.9557C106.555 15.492 100.793 20.3232 99.974 26.861L99.8214 28.0802L98.8574 27.2537C95.7192 24.5639 90.8869 23.5552 86.0099 24.5727L83.9127 25.0102L82.4274 24.29C77.2681 21.7866 71.3047 24.4384 68.2524 30.594L67.4145 32.2834L66.8963 31.009C65.9594 28.7036 64.506 26.7944 62.8431 25.6857C62.3124 25.331 62.3051 25.2998 62.727 25.1534C67.4785 23.5072 69.896 19.8248 69.5184 14.8071C69.0601 8.71875 63.0342 4.96811 56.598 6.76531ZM62.8509 9.12495C66.4922 10.2733 68.3269 15.2253 66.574 19.1739C64.1549 24.6227 54.0519 24.7571 51.4027 19.3759C48.3827 13.2412 55.5507 6.8226 62.8509 9.12495ZM166.566 13.9833C161.915 15.0373 156.917 20.6336 152.408 29.8362C143.434 48.1556 143.743 63.0529 153.095 63.0378C157.483 63.0305 160.524 59.2638 164.964 48.3389C165.922 45.9798 167.008 43.3785 167.378 42.5583L168.049 41.0663L168.332 42.2922C168.611 43.4983 168.604 43.5311 167.914 44.317C164.835 47.8244 164.194 54.858 166.586 58.8961C171.84 67.7623 190.613 68.1373 199.267 59.5481C205.373 53.4878 203.451 43.4671 196.181 43.4671H195.175V42.5645C195.175 42.0682 195.022 41.2293 194.836 40.7007C194.649 40.1716 194.593 39.7393 194.711 39.7393C199.074 39.7393 203.445 32.1579 201.716 27.5886C199.291 21.182 186.88 19.6847 178.026 24.73L176.264 25.7341L176.457 24.7561C177.855 17.6792 173.102 12.5022 166.566 13.9833ZM122.685 16.3304C131.698 18.4547 136.113 29.9039 134.048 45.7975C132.959 54.1784 129.237 58.1186 125.243 55.1179C123.848 54.0695 123.588 54.0331 121.255 54.5638C118.992 55.0788 115.406 54.9069 113.603 54.1971C103.339 50.158 106.217 33.1145 117.89 28.8056C119.841 28.0854 120.116 27.5141 118.747 27.0204C116.425 26.1825 115.28 26.709 110.945 30.6075C106.105 34.9607 102.528 34.4107 102.244 29.2696C101.91 23.2146 105.902 18.7677 113.439 16.7981C116.971 15.8753 120.085 15.7175 122.685 16.3304ZM171.202 16.6231C175.475 18.8551 175.55 23.5609 171.415 30.0586C168.488 34.6565 165.914 39.8706 162.819 47.463C158.807 57.3067 156.313 60.7068 153.104 60.7089C147.417 60.7136 146.532 52.1057 150.913 39.3847C156.484 23.2083 165.165 13.4693 171.202 16.6231ZM21.996 23.577C23.0579 24.1077 23.4505 24.467 23.9192 25.3367L24.5087 26.4298L26.2648 25.4122C35.0805 20.3029 44.1764 24.5905 47.0188 35.1956C48.3009 39.9784 47.2583 49.5971 45.1065 52.8462C43.3015 55.5715 37.5193 56.1266 35.1914 53.7982C33.7228 52.3301 33.6723 51.0725 34.8592 45.5642C36.3236 38.7691 34.8644 34.7956 31.2976 35.8694C28.6838 36.6558 28.4614 37.0823 27.9917 42.2083C26.9486 53.5951 23.3646 59.6872 17.9636 59.2534C12.5699 58.8206 9.41819 52.2666 9.41975 41.4865C9.42236 27.675 14.8197 19.9884 21.996 23.577ZM194.301 24.4926C201.184 26.159 201.825 34.0524 195.324 37.0797C193.22 38.0598 190.281 37.6385 190.281 36.3569C190.281 35.0299 187.588 34.9685 184.968 36.2355C181.961 37.6896 182.275 38.0593 187.144 38.7957C191.686 39.4826 191.866 39.5607 192.532 41.1324C193.767 44.0462 192.631 45.2809 186.392 47.7989C182.293 49.4529 181.497 50.1377 183 50.7157C184.863 51.4323 186.741 50.8511 189.604 48.6722C195.813 43.9472 200.742 45.2314 200.482 51.5063C199.925 64.9647 170.334 68.2326 167.562 55.1418C166.872 51.8833 167.987 47.6421 170.138 45.3429C171.327 44.0717 171.303 44.2685 170.591 41.6037C167.999 31.911 182.304 21.5877 194.301 24.4926ZM82.0342 26.6824L83.4065 27.4677L85.8734 26.961C95.5078 24.981 101.983 30.3492 101.99 40.3216C101.998 51.0183 95.9671 58.7602 88.5726 57.5457C85.1709 56.9869 85.148 55.3663 88.446 48.7102C93.1039 39.3107 92.3967 34.4883 86.7754 37.3208C84.1163 38.6608 84.0012 38.879 82.403 45.6246C80.5292 53.5342 78.9164 55.6787 74.8522 55.6673C64.8179 55.6381 65.6871 29.8618 75.85 26.0653C77.4452 25.4695 80.436 25.7679 82.0342 26.6824ZM61.0266 27.3313C67.2666 30.7278 67.5832 45.409 61.5479 51.5167C54.6242 58.5243 47.6948 50.1814 49.9039 37.4979C51.4532 28.6025 55.898 24.5399 61.0266 27.3313ZM120.667 39.5321C117.038 41.3282 116.365 46.1267 119.796 45.7397C122.428 45.4434 124.819 41.7349 123.461 40.0575C122.589 38.9816 122.002 38.8712 120.667 39.5321ZM120.849 42.6463C120.687 42.8416 120.446 43.0015 120.314 43.0015C120.182 43.0015 120.264 42.7911 120.496 42.5338C120.978 42.0016 121.3 42.1037 120.849 42.6463Z" fill="#282544"/>
</svg>
