<svg width="201" height="48" viewBox="0 0 201 48" fill="none" xmlns="http://www.w3.org/2000/svg">
<path fill-rule="evenodd" clip-rule="evenodd" d="M33.3437 43.8263C34.0052 43.0905 34.6473 42.3361 35.2701 41.5633C36.6058 39.9484 37.8746 38.291 39.0767 36.5911C41.3473 33.4462 43.4844 30.2588 45.4879 27.029C47.4913 23.7991 49.3613 20.4631 51.0976 17.0207C51.5873 16.0008 52.0993 14.8533 52.6336 13.5784C53.2124 12.3034 53.6799 11.0072 54.036 9.6898C54.4367 8.32986 54.6371 7.09742 54.6371 5.99247C54.6371 4.25005 54.1473 3.03886 53.1679 2.35889C52.1884 1.63642 50.8527 1.27519 49.1609 1.27519C47.0239 1.27519 44.6865 1.74267 42.1487 2.67763C39.6555 3.57008 37.14 4.76003 34.6023 6.24746C32.1091 7.69239 29.7717 9.22232 27.5901 10.8372C25.4531 12.4522 23.6722 13.9609 22.2475 15.3633C21.4016 16.2132 20.4889 17.2332 19.5094 18.4231C18.5299 19.6131 17.684 20.888 16.9717 22.248C16.3039 23.5654 15.9699 24.8403 15.9699 26.0728C15.9699 27.1352 16.2371 27.9215 16.7713 28.4314C17.3501 28.9414 18.0847 29.2601 18.9752 29.3876C19.8656 29.5151 20.756 29.5789 21.6465 29.5789C22.7595 29.5789 23.9616 29.4726 25.2527 29.2601C26.5884 29.0476 27.746 28.6864 28.7254 28.1764C28.9035 28.0914 29.0148 28.0489 29.0593 28.0489C29.3265 28.0489 29.46 28.1977 29.46 28.4952C29.46 28.9627 29.0816 29.3664 28.3247 29.7064C27.5679 30.0039 26.6774 30.2588 25.6534 30.4713C24.6294 30.6413 23.6499 30.7688 22.715 30.8538C21.8246 30.9388 21.2013 30.9813 20.8451 30.9813C19.9992 30.9813 19.0197 30.8963 17.9066 30.7263C17.8407 30.7137 17.7758 30.7015 17.7115 30.6895C14.9648 30.1772 11.241 29.0979 11.241 26.3039C11.241 24.604 11.8421 22.8403 13.0441 21.0129C14.2908 19.1855 15.9381 17.358 17.9861 15.5306C20.0341 13.7032 22.3047 11.9608 24.7979 10.3034C27.2911 8.60345 29.8066 7.09476 32.3443 5.77733C34.8821 4.45989 39.5887 2.40139 41.8148 1.59393C44.0409 0.743965 45.8886 0.255238 47.3578 0.127743C47.7585 0.0427482 48.1592 0.000250709 48.5599 0.000250709H49.7619C51.8099 0.000250709 53.524 0.382733 54.9042 1.1477C56.3289 1.91266 58.4353 4.73081 58.4353 6.94071C58.4353 8.59813 57.0997 12.9329 57.0997 12.9329L53.627 20.3913L49.1526 28.1685C49.1526 28.1685 46.9384 31.631 45.3589 34.0239C45.6494 33.7347 45.9373 33.443 46.2225 33.1487C47.8698 31.4063 49.4948 29.6851 51.0976 27.9852C52.9675 25.9878 54.8152 23.9691 56.6406 21.9292C58.5105 19.8893 60.3359 17.8282 62.1167 15.7458C62.4284 15.3633 62.8513 14.9383 63.3856 14.4708C63.9199 13.9609 64.4764 13.7059 65.0552 13.7059C65.634 13.7059 66.0124 13.9396 66.1905 14.4071C66.3686 14.8746 66.4576 15.3208 66.4576 15.7458C66.4576 16.2982 66.3908 16.8507 66.2573 17.4032L65.723 19.0606C65.723 19.0606 64.5877 22.2692 63.9199 24.2241C63.2966 26.1365 62.7623 28.0702 62.3171 30.0251C61.8719 31.9375 61.6493 33.6799 61.6493 35.2524C61.6493 35.5499 61.6715 35.9748 61.716 36.5273C61.8051 37.0798 61.9609 37.5898 62.1835 38.0572C62.4061 38.4822 62.7178 38.6947 63.1185 38.6947C63.6082 38.6947 64.0534 38.3972 64.4541 37.8022C64.8548 37.1648 65.1887 36.3998 65.4559 35.5074C65.723 34.6149 65.9233 33.7862 66.0569 33.0212C66.235 32.2138 66.324 31.6188 66.324 31.2363C66.324 30.6838 66.235 30.3013 66.0569 30.0889C65.9233 29.8339 65.8566 29.6214 65.8566 29.4514C65.8566 29.1964 65.9901 29.0689 66.2573 29.0689C66.658 29.0689 66.9473 29.3664 67.1254 29.9614C67.3035 30.5563 67.4148 31.1938 67.4593 31.8738C67.5484 32.5537 67.5929 33.0212 67.5929 33.2762C67.5929 33.9562 67.4593 34.8486 67.1922 35.9536C66.9696 37.0585 66.5689 38.0572 65.9901 38.9497C65.4559 39.7997 64.699 40.2246 63.7195 40.2246C62.9626 40.2246 62.2948 39.9484 61.716 39.3959C61.1818 38.8009 60.8033 38.1635 60.5807 37.4835C60.4026 36.8885 60.2691 36.2723 60.18 35.6348C60.1355 34.9974 60.1133 34.4024 60.1133 33.8499C60.1133 31.64 60.3804 29.3239 60.9146 26.9015C61.4489 24.4791 62.0945 22.2267 62.8513 20.1443C63.0294 19.6768 63.2743 18.9969 63.586 18.1044C63.8976 17.1695 64.0534 16.4895 64.0534 16.0645C64.0534 15.8945 64.0089 15.8095 63.9199 15.8095C63.8308 15.8095 63.6973 15.9158 63.5192 16.1283C63.3411 16.3407 63.2298 16.4682 63.1853 16.5107C59.579 20.7605 55.8837 24.8616 52.0993 28.8139C50.452 30.5138 48.7825 32.235 47.0906 33.9774C45.4433 35.7198 43.707 37.3773 41.8816 38.9497L39.4774 40.9896C38.676 41.7121 37.8969 42.4345 37.14 43.157L36.322 43.8263H33.3437ZM40.9184 38.0724C40.3232 38.4313 39.8073 38.7961 39.4774 39.2684L40.9184 38.0724Z" fill="#3A3C45"/>
<path d="M83.8163 43.5174C83.4949 43.5174 83.4031 43.3567 83.5408 43.0353C83.6785 42.7598 83.9311 42.14 84.2984 41.1758C84.6657 40.1657 85.0789 38.972 85.538 37.5946C86.0431 36.2172 86.5481 34.7939 87.0532 33.3247C87.5582 31.8555 88.0173 30.4781 88.4305 29.1925C88.8897 27.9069 89.257 26.8968 89.5325 26.1622C89.6243 25.8868 89.7161 25.4965 89.8079 24.9915C89.8998 24.4405 90.0834 23.9584 90.3589 23.5452C90.6803 23.0861 91.2083 22.8565 91.9429 22.8565C93.3203 22.8565 94.009 23.1779 94.009 23.8207C94.009 24.0502 93.8942 24.4405 93.6646 24.9915C93.1137 26.2311 92.5168 27.6544 91.874 29.2614C91.2312 30.8683 90.6573 32.3834 90.1523 33.8068C89.6472 35.2301 89.257 36.332 88.9815 37.1125C89.4406 36.4697 90.1752 35.5515 91.1853 34.3577C92.2413 33.164 93.4121 31.8784 94.6977 30.501C95.9832 29.1236 97.3147 27.7921 98.6921 26.5066C100.115 25.221 101.424 24.188 102.618 23.4074C103.857 22.581 104.913 22.1678 105.786 22.1678C106.888 22.1678 107.439 22.7647 107.439 23.9584C107.439 24.3716 107.324 24.9915 107.094 25.8179C106.681 26.9657 106.153 28.0906 105.51 29.1925C104.867 30.2485 104.294 31.3734 103.788 32.5671C102.916 34.725 102.411 36.4697 102.273 37.8012C102.227 37.9848 102.204 38.1685 102.204 38.3521C102.204 38.4899 102.204 38.6506 102.204 38.8342C102.204 40.6708 102.824 41.589 104.064 41.589C104.753 41.589 105.671 41.1758 106.819 40.3494C107.967 39.5229 109.137 38.5358 110.331 37.388C111.571 36.2401 112.673 35.1382 113.637 34.0822C114.601 32.9803 115.267 32.1539 115.634 31.6029C115.772 31.4652 115.91 31.3963 116.047 31.3963C116.231 31.3963 116.369 31.4652 116.46 31.6029C116.598 31.7407 116.621 31.9243 116.529 32.1539C116.116 32.9344 115.404 33.9215 114.394 35.1153C113.43 36.2631 112.351 37.4339 111.157 38.6276C109.964 39.7755 108.793 40.7626 107.645 41.589C106.956 42.0481 106.107 42.4614 105.097 42.8287C104.087 43.196 103.077 43.3567 102.067 43.3108C100.781 43.173 99.8629 42.7368 99.3119 42.0022C98.761 41.2217 98.4855 40.3035 98.4855 39.2475C98.4855 38.0078 98.7151 36.6993 99.1742 35.3219C99.6792 33.8986 100.23 32.5671 100.827 31.3275C101.424 30.0878 101.906 29.1466 102.273 28.5038C102.641 27.7692 102.824 27.1953 102.824 26.7821C102.824 26.4148 102.664 26.2311 102.342 26.2311C102.021 26.2311 101.539 26.4377 100.896 26.8509C100.253 27.2641 99.3808 27.9758 98.2789 28.9859C97.2688 29.8582 96.1899 31.0061 95.042 32.4294C93.8942 33.8068 92.7693 35.2301 91.6674 36.6993C90.6114 38.1685 89.6702 39.4311 88.8438 40.4871C88.0632 41.5431 87.5123 42.1629 87.1909 42.3466C86.9613 42.4843 86.4333 42.7139 85.6069 43.0353C84.8264 43.3567 84.2295 43.5174 83.8163 43.5174Z" fill="#3A3C45"/>
<path d="M82.422 18.328C81.8423 18.328 81.2403 18.2825 80.6159 18.1914C79.9916 18.0548 79.6795 17.6221 79.6795 16.8935C79.6795 16.7569 79.9693 16.4381 80.5491 15.9372C81.1734 15.4363 81.7977 14.9353 82.422 14.4344C83.0909 13.8879 83.4922 13.5691 83.626 13.4781C84.3841 12.8405 84.8523 12.5217 85.0307 12.5217C85.2536 12.5217 85.2536 12.8177 85.0307 13.4098C84.8077 14.0018 84.6962 14.5255 84.6962 14.9809C84.6962 15.2086 84.5624 15.5956 84.2949 16.1421C84.0273 16.6886 83.7152 17.1895 83.3584 17.6449C83.0017 18.1003 82.6895 18.328 82.422 18.328ZM75.131 42.7826C74.3283 42.7826 73.5925 42.6005 72.9236 42.2361C72.2993 41.8718 71.8311 41.1887 71.519 40.1869C71.4744 40.0502 71.4298 39.9136 71.3852 39.777C71.3852 39.6404 71.3852 39.481 71.3852 39.2989C71.3852 38.3881 71.5858 37.2496 71.9872 35.8834C72.3885 34.5172 72.879 33.1966 73.4588 31.9215C73.1912 32.2858 72.879 32.7412 72.5223 33.2877C72.1656 33.7886 71.6527 34.4489 70.9838 35.2686C70.8055 35.4508 70.6048 35.5419 70.3818 35.5419C70.0697 35.5419 69.9136 35.3597 69.9136 34.9954C69.9136 34.7221 70.0028 34.4945 70.1812 34.3123C71.3406 32.8095 72.3662 31.4661 73.2581 30.2821C74.1945 29.098 74.8857 28.0962 75.3317 27.2765C75.3317 27.2309 75.3094 27.2082 75.2648 27.2082C75.2648 27.1626 75.2648 27.1171 75.2648 27.0715C75.2648 26.9349 75.3317 26.73 75.4654 26.4568C75.8222 25.3638 76.1789 24.453 76.5357 23.7244C76.937 22.9502 77.3607 22.5176 77.8066 22.4265C77.8958 22.4265 77.985 22.4265 78.0741 22.4265C78.1633 22.381 78.2525 22.3582 78.3417 22.3582C78.8322 22.3582 79.2782 22.4721 79.6795 22.6998C80.0808 22.9275 80.2815 23.269 80.2815 23.7244C80.2815 24.1343 80.1254 24.6352 79.8133 25.2272C79.5457 25.8192 79.189 26.5478 78.743 27.4131C77.762 29.5079 76.8701 31.4205 76.0675 33.151C75.3094 34.836 74.8857 36.2249 74.7965 37.3179C74.752 37.5 74.7297 37.6822 74.7297 37.8644C74.7297 38.001 74.7297 38.1604 74.7297 38.3425C74.7297 40.1641 75.3094 41.0749 76.4688 41.0749C77.1823 41.0749 78.0964 40.6878 79.2113 39.9136C80.3261 39.0939 81.4632 38.1148 82.6226 36.9763C83.7821 35.7923 84.83 34.6766 85.7664 33.6292C86.7475 32.5363 87.4164 31.7166 87.7731 31.1701C87.9069 31.0335 88.0407 30.9652 88.1745 30.9652C88.3528 30.9652 88.4866 31.0335 88.5758 31.1701C88.7096 31.3067 88.7319 31.4889 88.6427 31.7166C88.2414 32.4907 87.5502 33.4698 86.5691 34.6538C85.6327 35.7923 84.5624 36.9536 83.3584 38.1376C82.199 39.2761 81.0619 40.2552 79.947 41.0749C79.3673 41.5303 78.6316 41.9174 77.7397 42.2361C76.8924 42.6005 76.0229 42.7826 75.131 42.7826Z" fill="#3A3C45"/>
<path fill-rule="evenodd" clip-rule="evenodd" d="M119.102 43.0253C121.157 42.8969 123.101 42.0139 124.545 40.5466C125.489 39.5867 126.288 38.5725 126.921 37.4639L126.941 37.4293L126.963 37.3963C127.797 36.1657 128.413 35.157 128.975 34.0321C129.507 32.9676 130.659 32.3329 131.826 32.5638C131.826 33.9989 131.83 34.503 131.987 35.2388L131.991 35.2547L131.994 35.2707C132.233 36.5879 132.528 37.82 132.994 39.1025L133.001 39.1205L133.007 39.1388C133.51 40.6985 134.494 42.0193 135.886 43.4024H139.959V42.8231L139.531 42.6585L139.348 42.3986C137.682 40.0282 136.378 37.3055 135.852 34.2339C135.507 32.5479 135.081 30.9358 134.647 29.2473C134.379 28.2029 133.899 27.2235 133.229 26.3794C131.434 24.1213 130.165 23.2723 128.82 22.9565H122.803C121.485 23.3453 120.296 23.9896 119.125 24.8202C117.284 26.499 115.891 28.4119 114.777 30.4604C113.732 32.5562 113.105 34.8022 113.048 37.0842L113.047 37.1184L113.044 37.1526C112.962 38.0556 112.972 38.8804 113.078 39.6572C113.287 41.2022 114.208 42.7055 115.737 43.0115C115.783 43.0207 115.829 43.0295 115.876 43.0377C116.936 43.0928 118.028 43.0924 119.102 43.0253ZM116.933 38.7271L116.939 38.6727C117.062 37.5097 117.188 36.3632 117.381 35.3322C117.565 34.2887 117.829 33.056 118.392 31.9853C119.115 30.3546 120.144 28.8797 121.202 27.5694C122.36 25.8811 123.721 24.8692 125.093 24.0853L125.469 23.8709L125.885 23.9846C126.954 24.2761 127.813 25.2442 128.449 26.1979L128.806 26.7328L124.364 34.5565C123.025 36.9142 121.371 39.1398 119.218 41.356L118.193 42.4104L117.536 41.0955C117.111 40.2462 116.933 39.594 116.933 38.7819V38.7271Z" fill="#3A3C45"/>
<path d="M26.1018 37.2351L14.087 33.9125C12.9775 33.5903 10.308 32.1622 9.10965 31.4081C8.44396 30.963 7.70793 30.4294 6.90158 29.807C6.08051 29.2225 5.28573 28.5256 4.51725 27.7165C3.71307 26.9092 3.03809 26.0397 2.49231 25.1078C1.63166 23.6384 1.1953 22.2018 1.18323 20.7981C1.15016 19.3585 1.41326 17.9216 1.97253 16.4875C2.67898 14.6759 3.68257 13.0888 4.98329 11.7261C6.2483 10.3652 7.66761 9.23642 9.24121 8.33962C10.7791 7.44472 12.3075 6.7536 13.8263 6.26625C15.3304 5.81663 16.6644 5.57935 17.828 5.55438C18.5275 5.55412 19.333 5.64061 20.2446 5.81385C21.1561 5.98709 22.0655 6.34523 22.9727 6.88828C23.8442 7.43322 24.5843 8.22538 25.1931 9.26475C25.7179 10.1608 26.0179 11.0503 26.0932 11.9332C26.1538 12.8539 26.0683 13.7455 25.837 14.6078C25.6056 15.4701 25.3427 16.2787 25.0484 17.0335C24.6804 17.977 24.2306 18.9064 23.6988 19.8217C23.1523 20.7747 22.5912 21.4513 22.0155 21.8515C21.9147 21.9308 21.8569 21.9893 21.8422 22.0271C21.7539 22.2535 21.7832 22.4922 21.9301 22.7431C22.161 23.1373 22.4856 23.157 22.9037 22.8021C23.3008 22.4114 23.7211 21.8717 24.1646 21.1828C24.5871 20.4582 24.9738 19.7354 25.3249 19.0145C25.6612 18.3314 25.8883 17.8388 26.006 17.5369C26.2856 16.8199 26.5674 15.9179 26.8514 14.831C27.1144 13.7083 27.1915 12.6139 27.0827 11.548C26.8776 9.56317 26.3867 7.90773 25.61 6.58163C24.7703 5.14801 23.7005 4.17013 22.4005 3.64799C21.0858 3.16359 19.6386 3.01885 18.0589 3.21378C16.4793 3.40871 14.868 3.86402 13.2252 4.57971C11.5613 5.25957 9.98458 6.11958 8.49493 7.15974C7.00529 8.1999 5.69311 9.32301 4.55839 10.5291C3.40267 11.6993 2.55049 12.8534 2.00183 13.9913C1.82739 14.2593 1.67394 14.5631 1.54148 14.9028L1.1441 15.9217C0.46709 17.6578 0.0893818 19.4334 0.0109796 21.2485C-0.0821413 23.1013 0.417077 24.9596 1.50863 26.8233C2.3273 28.2211 3.46107 29.5282 4.90996 30.7446C6.35884 31.961 7.9695 33.0764 9.74193 34.0908C11.4787 35.1071 13.2522 36.0291 15.0625 36.8567C16.8518 37.6484 18.5246 38.3355 20.0809 38.918C21.4596 39.434 22.6266 39.8597 23.5817 40.1952C24.4254 39.3778 25.322 38.2811 26.1018 37.2351Z" fill="#3A3C45"/>
<path d="M182.526 48C182.276 48 182.151 47.8043 182.151 47.4128C182.151 47.1193 182.258 46.9235 182.472 46.8257C182.722 46.7278 182.847 46.4098 182.847 45.8716C182.847 45.5291 182.776 45.211 182.633 44.9174C182.526 44.6728 182.401 44.4281 182.258 44.1835C181.794 43.4006 181.098 42.7401 180.17 42.2018C179.277 41.7125 178.331 41.3456 177.332 41.1009C176.368 40.8073 175.547 40.6116 174.869 40.5138C174.048 40.367 173.209 40.2691 172.352 40.2202C171.531 40.1713 170.71 40.1468 169.889 40.1468C167.712 40.1468 165.516 40.2691 163.303 40.5138C161.09 40.7095 158.894 41.0031 156.717 41.3945C155.253 42.7156 153.736 43.792 152.166 44.6239C150.595 45.4557 148.935 45.9939 147.186 46.2385C147.114 46.2875 147.007 46.3119 146.865 46.3119C146.508 46.3119 146.115 46.1651 145.687 45.8716C145.258 45.6269 145.044 45.2355 145.044 44.6972C145.044 44.159 145.223 43.7431 145.579 43.4495C145.936 43.156 146.258 42.9358 146.543 42.789C147.4 42.3486 148.4 41.9817 149.542 41.6881C150.72 41.3945 151.755 41.1499 152.647 40.9541C152.933 40.8563 153.272 40.7829 153.665 40.7339C154.057 40.685 154.361 40.6361 154.575 40.5872C154.825 40.4893 155.075 40.318 155.325 40.0734C155.61 39.8287 155.86 39.633 156.074 39.4862C157.824 38.0673 159.43 36.4037 160.893 34.4954C162.393 32.5872 163.767 30.581 165.016 28.4771C163.874 28.9174 162.696 29.2599 161.482 29.5046C160.304 29.7492 159.109 29.8716 157.895 29.8716C156.717 29.8716 155.45 29.6758 154.093 29.2844C152.737 28.893 151.487 28.2324 150.345 27.3028C149.203 26.3731 148.346 25.1009 147.775 23.4862C147.382 22.263 147.186 21.0887 147.186 19.9633C147.186 18.2508 147.489 16.685 148.096 15.2661C148.703 13.7982 149.47 12.4771 150.399 11.3028C151.362 10.0795 152.38 9.02752 153.451 8.14679C154.557 7.21713 155.61 6.43425 156.61 5.79816C156.646 5.74924 156.699 5.72477 156.77 5.72477C157.02 5.72477 157.145 5.92049 157.145 6.31193C157.145 6.50764 157.074 6.6789 156.931 6.82569C156.467 7.1682 156.003 7.48624 155.539 7.77982C155.111 8.0734 154.682 8.4159 154.254 8.80734C152.969 10.0306 151.791 11.5719 150.72 13.4312C149.685 15.2416 149.167 17.2722 149.167 19.5229C149.167 21.1865 149.453 22.581 150.024 23.7064C150.631 24.8318 151.398 25.737 152.326 26.422C153.254 27.0581 154.254 27.5229 155.325 27.8165C156.396 28.0612 157.431 28.1835 158.43 28.1835C159.715 28.1835 161.001 28.0612 162.286 27.8165C163.571 27.5229 164.838 27.1315 166.087 26.6422C167.337 24.4893 168.533 22.263 169.675 19.9633C170.817 17.6147 171.942 15.315 173.048 13.0642C173.941 11.3517 174.887 9.54129 175.886 7.63303C176.886 5.67584 177.974 4.01223 179.152 2.6422C179.795 1.90826 180.491 1.29664 181.241 0.807339C181.99 0.269113 182.793 0 183.65 0C184.9 0 185.899 0.562691 186.649 1.68807C187.434 2.76453 187.827 4.15902 187.827 5.87156C187.827 7.38838 187.541 8.88073 186.97 10.3486C186.434 11.7676 185.756 13.1132 184.935 14.3853C184.15 15.6086 183.347 16.685 182.526 17.6147C181.669 18.5933 180.598 19.5963 179.313 20.6239C178.028 21.6024 176.654 22.5321 175.19 23.4128C173.726 24.2936 172.299 25.1009 170.906 25.8349C169.514 26.5688 168.283 27.156 167.212 27.5963C165.891 29.8471 164.481 32.0489 162.982 34.2018C161.482 36.3547 159.876 38.2875 158.163 40C160.447 39.6575 162.732 39.3884 165.016 39.1927C167.301 38.9969 169.586 38.8991 171.87 38.8991C172.691 38.8991 173.637 38.948 174.708 39.0459C175.815 39.0948 176.939 39.2416 178.081 39.4862C179.224 39.7309 180.259 40.1223 181.187 40.6606C182.151 41.1499 182.9 41.8593 183.436 42.789C183.829 43.3761 184.025 44.0367 184.025 44.7706C184.025 45.2599 183.882 45.9205 183.597 46.7523C183.311 47.5841 182.954 48 182.526 48ZM168.283 25.7615C169.568 25.1743 170.942 24.4648 172.406 23.633C173.869 22.8012 175.297 21.8716 176.689 20.844C178.081 19.7676 179.295 18.6177 180.33 17.3945C181.116 16.4648 181.99 15.2905 182.954 13.8716C183.954 12.4526 184.81 10.9358 185.524 9.3211C186.274 7.65749 186.649 6.06728 186.649 4.55046C186.649 3.71866 186.488 3.03364 186.167 2.49541C185.845 1.90826 185.346 1.61468 184.667 1.61468C183.882 1.61468 183.079 1.95719 182.258 2.6422C181.473 3.27829 180.723 4.06116 180.009 4.99083C179.331 5.87156 178.742 6.70336 178.242 7.48624C177.457 8.70948 176.707 9.98165 175.993 11.3028C175.315 12.6239 174.619 13.945 173.905 15.2661C173.012 17.0275 172.084 18.789 171.121 20.5505C170.192 22.3119 169.246 24.0489 168.283 25.7615ZM148.31 43.8165C148.917 43.8654 149.578 43.7187 150.291 43.3761C151.041 43.0826 151.737 42.8135 152.38 42.5688C152.63 42.5199 152.755 42.3976 152.755 42.2018C152.755 42.1529 152.701 42.1284 152.594 42.1284H152.326C151.755 42.1774 151.22 42.2263 150.72 42.2752C150.22 42.3731 149.702 42.5688 149.167 42.8624C148.989 42.9602 148.792 43.0581 148.578 43.156C148.4 43.2538 148.31 43.474 148.31 43.8165Z" fill="#3A3C45"/>
<path d="M187.683 44.8696C183.605 44.8696 181.566 43.1194 181.566 39.6189C181.566 36.9161 183.005 33.6372 185.884 29.7823C188.858 25.9274 191.689 24 194.375 24C195.527 24 196.534 24.3545 197.398 25.0634C198.309 25.7281 198.765 26.5478 198.765 27.5226C198.765 29.162 197.638 30.8236 195.383 32.5073C193.176 34.1468 190.993 34.9665 188.834 34.9665C188.402 34.9665 188.186 34.8779 188.186 34.7006L188.402 34.3683C193.92 32.7732 196.678 30.159 196.678 26.5256C196.678 25.9939 196.486 25.7281 196.103 25.7281C195.575 25.7281 194.615 26.2376 193.224 27.2567C192.025 28.1429 190.897 29.162 189.842 30.314C188.834 31.4661 187.923 32.6624 187.107 33.9031C185.38 36.6059 184.516 38.8657 184.516 40.6824C184.516 42.4547 185.26 43.3409 186.747 43.3409C188.474 43.3409 190.369 42.5212 192.432 40.8818C193.104 40.3057 193.824 39.6633 194.591 38.9543C195.359 38.2011 196.198 37.3813 197.11 36.4952C198.885 34.7228 199.821 33.8366 199.917 33.8366C200.204 33.8366 200.348 33.9474 200.348 34.1689C200.348 34.3462 200.3 34.5234 200.204 34.7006C195.167 41.4799 190.993 44.8696 187.683 44.8696Z" fill="#3A3C45"/>
</svg>
